HIERARCHY
ROOT mixamorig:Hips
{
	OFFSET -0.000008 104.274872 1.554316
	CHANNELS 6 Xposition Yposition Zposition Xrotation Yrotation Zrotation
	JOINT mixamorig:Spine
	{
		OFFSET -0.000005 10.181595 0.131519
		CHANNELS 6 Xposition Yposition Zposition Xrotation Yrotation Zrotation
		JOINT mixamorig:Spine1
		{
			OFFSET -0.000000 9.893959 -1.470707
			CHANNELS 6 Xposition Yposition Zposition Xrotation Yrotation Zrotation
			JOINT mixamorig:Spine2
			{
				OFFSET -0.000000 9.220757 -1.370641
				CHANNELS 6 Xposition Yposition Zposition Xrotation Yrotation Zrotation
				JOINT mixamorig:Neck
				{
					OFFSET 0.000001 16.740417 -2.049036
					CHANNELS 6 Xposition Yposition Zposition Xrotation Yrotation Zrotation
					JOINT mixamorig:Head
					{
						OFFSET 0.000000 9.617874 1.685006
						CHANNELS 6 Xposition Yposition Zposition Xrotation Yrotation Zrotation
						JOINT mixamorig:HeadTop_End
						{
							OFFSET 0.000002 22.037354 7.501101
							CHANNELS 6 Xposition Yposition Zposition Xrotation Yrotation Zrotation
							End Site
							{
								OFFSET 0.000168 2310.654297 -282.823242
							}
						}
					}
				}
				JOINT mixamorig:RightShoulder
				{
					OFFSET -4.569970 11.014908 -2.160885
					CHANNELS 6 Xposition Yposition Zposition Xrotation Yrotation Zrotation
					JOINT mixamorig:RightArm
					{
						OFFSET -10.592851 -0.524811 -2.232101
						CHANNELS 6 Xposition Yposition Zposition Xrotation Yrotation Zrotation
						JOINT mixamorig:RightForeArm
						{
							OFFSET -27.841511 0.000031 -0.000004
							CHANNELS 6 Xposition Yposition Zposition Xrotation Yrotation Zrotation
							JOINT mixamorig:RightHand
							{
								OFFSET -28.328831 -0.000015 0.000015
								CHANNELS 6 Xposition Yposition Zposition Xrotation Yrotation Zrotation
								JOINT mixamorig:RightHandThumb1
								{
									OFFSET -2.464806 -1.573990 2.681852
									CHANNELS 6 Xposition Yposition Zposition Xrotation Yrotation Zrotation
									JOINT mixamorig:RightHandThumb2
									{
										OFFSET -3.215179 -1.872803 1.924282
										CHANNELS 6 Xposition Yposition Zposition Xrotation Yrotation Zrotation
										JOINT mixamorig:RightHandThumb3
										{
											OFFSET -2.654831 -1.527969 1.512609
											CHANNELS 6 Xposition Yposition Zposition Xrotation Yrotation Zrotation
											JOINT mixamorig:RightHandThumb4
											{
												OFFSET -2.018814 -1.152008 1.108052
												CHANNELS 6 Xposition Yposition Zposition Xrotation Yrotation Zrotation
												End Site
												{
													OFFSET -188.809540 -114.533607 132.431396
												}
											}
										}
									}
								}
								JOINT mixamorig:RightHandIndex1
								{
									OFFSET -9.108284 -0.517868 2.259835
									CHANNELS 6 Xposition Yposition Zposition Xrotation Yrotation Zrotation
									JOINT mixamorig:RightHandIndex2
									{
										OFFSET -3.699989 0.000000 0.001215
										CHANNELS 6 Xposition Yposition Zposition Xrotation Yrotation Zrotation
										JOINT mixamorig:RightHandIndex3
										{
											OFFSET -2.850006 0.000031 -0.000522
											CHANNELS 6 Xposition Yposition Zposition Xrotation Yrotation Zrotation
											JOINT mixamorig:RightHandIndex4
											{
												OFFSET -2.772186 -0.000015 -0.000020
												CHANNELS 6 Xposition Yposition Zposition Xrotation Yrotation Zrotation
												End Site
												{
													OFFSET -277.218445 0.000000 -0.050231
												}
											}
										}
									}
								}
								JOINT mixamorig:RightHandMiddle1
								{
									OFFSET -9.532516 -0.000031 -0.000023
									CHANNELS 6 Xposition Yposition Zposition Xrotation Yrotation Zrotation
									JOINT mixamorig:RightHandMiddle2
									{
										OFFSET -3.700005 -0.000015 0.003713
										CHANNELS 6 Xposition Yposition Zposition Xrotation Yrotation Zrotation
										JOINT mixamorig:RightHandMiddle3
										{
											OFFSET -2.949974 0.000015 -0.002054
											CHANNELS 6 Xposition Yposition Zposition Xrotation Yrotation Zrotation
											JOINT mixamorig:RightHandMiddle4
											{
												OFFSET -2.946640 0.000000 -0.000156
												CHANNELS 6 Xposition Yposition Zposition Xrotation Yrotation Zrotation
												End Site
												{
													OFFSET -294.664337 0.000000 -0.113670
												}
											}
										}
									}
								}
								JOINT mixamorig:RightHandRing1
								{
									OFFSET -9.103600 -0.043076 -1.865134
									CHANNELS 6 Xposition Yposition Zposition Xrotation Yrotation Zrotation
									JOINT mixamorig:RightHandRing2
									{
										OFFSET -3.379288 0.000000 -0.001055
										CHANNELS 6 Xposition Yposition Zposition Xrotation Yrotation Zrotation
										JOINT mixamorig:RightHandRing3
										{
											OFFSET -2.889687 -0.000015 0.000379
											CHANNELS 6 Xposition Yposition Zposition Xrotation Yrotation Zrotation
											JOINT mixamorig:RightHandRing4
											{
												OFFSET -2.638809 -0.000015 0.000941
												CHANNELS 6 Xposition Yposition Zposition Xrotation Yrotation Zrotation
												End Site
												{
													OFFSET -263.880371 0.000000 0.516020
												}
											}
										}
									}
								}
								JOINT mixamorig:RightHandPinky1
								{
									OFFSET -8.076683 -0.486710 -3.806280
									CHANNELS 6 Xposition Yposition Zposition Xrotation Yrotation Zrotation
									JOINT mixamorig:RightHandPinky2
									{
										OFFSET -3.600014 -0.000015 -0.003747
										CHANNELS 6 Xposition Yposition Zposition Xrotation Yrotation Zrotation
										JOINT mixamorig:RightHandPinky3
										{
											OFFSET -2.099983 0.000000 -0.005739
											CHANNELS 6 Xposition Yposition Zposition Xrotation Yrotation Zrotation
											JOINT mixamorig:RightHandPinky4
											{
												OFFSET -2.115768 -0.000031 -0.003680
												CHANNELS 6 Xposition Yposition Zposition Xrotation Yrotation Zrotation
												End Site
												{
													OFFSET -211.577087 0.000000 -0.350686
												}
											}
										}
									}
								}
							}
						}
					}
				}
				JOINT mixamorig:LeftShoulder
				{
					OFFSET 4.570447 11.014725 -2.160855
					CHANNELS 6 Xposition Yposition Zposition Xrotation Yrotation Zrotation
					JOINT mixamorig:LeftArm
					{
						OFFSET 10.592371 -0.524597 -2.232119
						CHANNELS 6 Xposition Yposition Zposition Xrotation Yrotation Zrotation
						JOINT mixamorig:LeftForeArm
						{
							OFFSET 27.841532 -0.000031 0.000026
							CHANNELS 6 Xposition Yposition Zposition Xrotation Yrotation Zrotation
							JOINT mixamorig:LeftHand
							{
								OFFSET 28.328846 -0.000061 0.000022
								CHANNELS 6 Xposition Yposition Zposition Xrotation Yrotation Zrotation
								JOINT mixamorig:LeftHandThumb1
								{
									OFFSET 2.466141 -1.576172 2.681732
									CHANNELS 6 Xposition Yposition Zposition Xrotation Yrotation Zrotation
									JOINT mixamorig:LeftHandThumb2
									{
										OFFSET 3.217812 -1.872070 1.916482
										CHANNELS 6 Xposition Yposition Zposition Xrotation Yrotation Zrotation
										JOINT mixamorig:LeftHandThumb3
										{
											OFFSET 2.656029 -1.528778 1.514513
											CHANNELS 6 Xposition Yposition Zposition Xrotation Yrotation Zrotation
											JOINT mixamorig:LeftHandThumb4
											{
												OFFSET 2.020889 -1.154053 1.115139
												CHANNELS 6 Xposition Yposition Zposition Xrotation Yrotation Zrotation
												End Site
												{
													OFFSET 190.885437 -115.081749 130.048782
												}
											}
										}
									}
								}
								JOINT mixamorig:LeftHandIndex1
								{
									OFFSET 9.109314 -0.518021 2.259871
									CHANNELS 6 Xposition Yposition Zposition Xrotation Yrotation Zrotation
									JOINT mixamorig:LeftHandIndex2
									{
										OFFSET 3.699989 0.000000 -0.000322
										CHANNELS 6 Xposition Yposition Zposition Xrotation Yrotation Zrotation
										JOINT mixamorig:LeftHandIndex3
										{
											OFFSET 2.850006 0.000000 0.000352
											CHANNELS 6 Xposition Yposition Zposition Xrotation Yrotation Zrotation
											JOINT mixamorig:LeftHandIndex4
											{
												OFFSET 2.774864 -0.000031 -0.000027
												CHANNELS 6 Xposition Yposition Zposition Xrotation Yrotation Zrotation
												End Site
												{
													OFFSET 277.486267 0.000000 -0.009857
												}
											}
										}
									}
								}
								JOINT mixamorig:LeftHandMiddle1
								{
									OFFSET 9.533394 0.000061 0.000044
									CHANNELS 6 Xposition Yposition Zposition Xrotation Yrotation Zrotation
									JOINT mixamorig:LeftHandMiddle2
									{
										OFFSET 3.699989 -0.000015 -0.000231
										CHANNELS 6 Xposition Yposition Zposition Xrotation Yrotation Zrotation
										JOINT mixamorig:LeftHandMiddle3
										{
											OFFSET 2.949997 -0.000015 -0.000059
											CHANNELS 6 Xposition Yposition Zposition Xrotation Yrotation Zrotation
											JOINT mixamorig:LeftHandMiddle4
											{
												OFFSET 2.952896 0.000031 0.000063
												CHANNELS 6 Xposition Yposition Zposition Xrotation Yrotation Zrotation
												End Site
												{
													OFFSET 295.289337 0.000000 0.022810
												}
											}
										}
									}
								}
								JOINT mixamorig:LeftHandRing1
								{
									OFFSET 9.104523 -0.042999 -1.865074
									CHANNELS 6 Xposition Yposition Zposition Xrotation Yrotation Zrotation
									JOINT mixamorig:LeftHandRing2
									{
										OFFSET 3.150009 -0.000031 0.000043
										CHANNELS 6 Xposition Yposition Zposition Xrotation Yrotation Zrotation
										JOINT mixamorig:LeftHandRing3
										{
											OFFSET 2.949982 -0.000015 0.000040
											CHANNELS 6 Xposition Yposition Zposition Xrotation Yrotation Zrotation
											JOINT mixamorig:LeftHandRing4
											{
												OFFSET 2.644348 0.000000 0.000057
												CHANNELS 6 Xposition Yposition Zposition Xrotation Yrotation Zrotation
												End Site
												{
													OFFSET 264.434631 0.000000 0.012105
												}
											}
										}
									}
								}
								JOINT mixamorig:LeftHandPinky1
								{
									OFFSET 8.077789 -0.486847 -3.806259
									CHANNELS 6 Xposition Yposition Zposition Xrotation Yrotation Zrotation
									JOINT mixamorig:LeftHandPinky2
									{
										OFFSET 3.599953 0.000031 0.014727
										CHANNELS 6 Xposition Yposition Zposition Xrotation Yrotation Zrotation
										JOINT mixamorig:LeftHandPinky3
										{
											OFFSET 2.100021 0.000015 0.007705
											CHANNELS 6 Xposition Yposition Zposition Xrotation Yrotation Zrotation
											JOINT mixamorig:LeftHandPinky4
											{
												OFFSET 2.125504 0.000031 0.007517
												CHANNELS 6 Xposition Yposition Zposition Xrotation Yrotation Zrotation
												End Site
												{
													OFFSET 212.550781 0.000000 0.625752
												}
											}
										}
									}
								}
							}
						}
					}
				}
			}
		}
	}
	JOINT mixamorig:RightUpLeg
	{
		OFFSET -8.207787 -6.751648 -1.599560
		CHANNELS 6 Xposition Yposition Zposition Xrotation Yrotation Zrotation
		JOINT mixamorig:RightLeg
		{
			OFFSET -0.000002 -44.370117 0.345942
			CHANNELS 6 Xposition Yposition Zposition Xrotation Yrotation Zrotation
			JOINT mixamorig:RightFoot
			{
				OFFSET 0.000003 -44.423679 -3.043532
				CHANNELS 6 Xposition Yposition Zposition Xrotation Yrotation Zrotation
				JOINT mixamorig:RightToeBase
				{
					OFFSET -0.000002 -8.728671 10.710558
					CHANNELS 6 Xposition Yposition Zposition Xrotation Yrotation Zrotation
					JOINT mixamorig:RightToe_End
					{
						OFFSET -0.000001 -0.000679 9.278119
						CHANNELS 6 Xposition Yposition Zposition Xrotation Yrotation Zrotation
						End Site
						{
							OFFSET 0.000000 -0.067690 927.812134
						}
					}
				}
			}
		}
	}
	JOINT mixamorig:LeftUpLeg
	{
		OFFSET 8.207793 -6.751686 -1.599556
		CHANNELS 6 Xposition Yposition Zposition Xrotation Yrotation Zrotation
		JOINT mixamorig:LeftLeg
		{
			OFFSET -0.000004 -44.370014 0.346954
			CHANNELS 6 Xposition Yposition Zposition Xrotation Yrotation Zrotation
			JOINT mixamorig:LeftFoot
			{
				OFFSET -0.000001 -44.423672 -3.044401
				CHANNELS 6 Xposition Yposition Zposition Xrotation Yrotation Zrotation
				JOINT mixamorig:LeftToeBase
				{
					OFFSET -0.000002 -8.728669 10.710558
					CHANNELS 6 Xposition Yposition Zposition Xrotation Yrotation Zrotation
					JOINT mixamorig:LeftToe_End
					{
						OFFSET -0.000003 -0.000679 9.278133
						CHANNELS 6 Xposition Yposition Zposition Xrotation Yrotation Zrotation
						End Site
						{
							OFFSET 0.000000 -0.068021 927.813477
						}
					}
				}
			}
		}
	}
}
MOTION
Frames: 3
Frame Time: 0.033333
0.000006 104.270477 1.554256 0.000010 0.000003 -0.000113 -0.000005 10.181587 0.131522 0.000001 -0.000003 0.000084 -0.000000 9.893967 -1.470711 0.000001 0.000000 -0.000000 -0.000000 9.220802 -1.370642 0.000000 -0.000000 -0.000000 0.000001 16.740433 -2.049030 0.000000 -0.000000 -0.000000 0.000000 9.617859 1.685014 0.000000 0.000000 0.000000 0.000002 22.037384 7.501101 0.000000 -0.000000 0.000000 -4.569968 11.014880 -2.160881 0.000008 0.000001 -0.000038 -10.592810 -0.524830 -2.231765 41.558399 64.990787 -27.174816 -27.841518 0.000029 0.000560 69.258323 105.057674 -84.034700 -28.328831 0.000038 0.000031 -0.000321 -0.000041 0.000008 -2.464924 -1.573920 2.682310 16.149175 -210.422392 169.988792 -3.215306 -1.872668 1.924687 192.598330 35.422058 360.776548 -2.654958 -1.527858 1.513054 263.519408 118.144159 -271.334183 -2.018831 -1.152002 1.108063 -0.000003 0.000000 0.000004 -9.108413 -0.517639 2.259997 240.776189 153.600641 -195.694701 -3.700149 0.000127 0.001491 53.432754 50.420682 -26.641780 -2.850107 -0.000040 -0.000097 -82.418540 50.883403 45.233737 -2.772155 -0.000001 -0.000020 -0.000003 0.000001 -0.000004 -9.532594 0.000238 0.000136 69.275979 16.859152 -11.792719 -3.700072 0.000312 0.004023 104.791727 11.578820 -14.876268 -2.949940 0.000115 -0.001457 28.693495 161.954440 -116.337055 -2.946634 0.000013 -0.000154 -0.000000 -0.000002 0.000001 -9.103682 -0.042758 -1.864956 74.396797 13.140048 -9.958826 -3.379166 0.000386 -0.000742 121.098912 -12.676096 22.239260 -2.889635 -0.000143 0.000859 581.428377 -15.301106 -38.978845 -2.638823 -0.000013 0.000939 -0.000001 0.000004 0.000002 -8.076723 -0.486370 -3.806079 78.234428 9.944528 -7.979336 -3.599901 0.000360 -0.003460 -64.626301 -169.137914 -162.526947 -2.099825 -0.000253 -0.005276 207.750244 -18.229106 -66.957301 -2.115780 -0.000026 -0.003680 0.000002 -0.000001 -0.000004 4.570446 11.014691 -2.160851 -0.000018 0.000010 -0.000021 10.592480 -0.524555 -2.232357 40.439433 -59.885623 23.956533 27.841732 -0.000081 -0.000110 253.361551 -77.587527 265.637641 28.328838 -0.000028 0.000024 0.000021 -0.000090 0.000000 2.466260 -1.576038 2.681851 17.927387 164.486228 -107.140874 3.217854 -1.871961 1.916521 209.721341 22.824774 70.793743 2.656043 -1.528545 1.514671 257.859777 -23.336422 15.797270 2.020883 -1.154085 1.115145 0.000001 0.000001 0.000003 9.109365 -0.517951 2.259772 415.223865 -21.586307 371.381209 3.700083 0.000101 -0.000420 89.139446 -30.738983 30.321003 2.849895 0.000011 0.000469 1.302523 -131.629261 2.897327 2.774881 -0.000014 -0.000034 -0.000000 0.000000 -0.000000 9.533445 0.000155 -0.000078 246.782439 -164.117315 190.501216 3.700065 0.000230 -0.000368 103.678911 -12.703547 16.122067 2.949785 0.000023 0.000052 7.354146 -156.093018 33.779530 2.952864 -0.000014 0.000061 0.000002 0.000001 0.000001 9.104565 -0.042879 -1.865213 73.491804 -13.667818 10.227600 3.149951 0.000312 -0.000141 109.511271 9.568223 -13.508421 2.949772 -0.000069 0.000082 184.942726 13.541251 -219.971420 2.644336 0.000015 0.000062 -0.000003 -0.000000 -0.000001 8.077832 -0.486705 -3.806401 80.286053 -13.674769 12.032127 3.599931 0.000342 0.014577 114.517691 5.774510 -8.387271 2.099662 0.000137 0.007724 173.339396 14.797364 -133.234451 2.125484 -0.000020 0.007520 -0.000002 -0.000000 -0.000001 -8.207786 -6.751667 -1.599560 -0.077001 -0.000003 0.000080 -0.000002 -44.370110 0.345938 0.153719 -0.000000 -0.000000 0.000000 -44.423679 -3.043532 -0.076700 0.000000 -0.000002 -0.000006 -8.728667 10.710559 -0.000009 -0.000000 -0.000000 -0.000001 -0.000679 9.278123 0.000000 -0.000000 -0.000000 8.207792 -6.751710 -1.599556 -0.074518 -0.000003 0.000081 -0.000002 -44.370014 0.346960 0.148822 0.000002 0.000000 -0.000001 -44.423664 -3.044403 -0.074314 0.000000 -0.000002 -0.000004 -8.728671 10.710558 0.000007 -0.000000 -0.000000 0.000000 -0.000680 9.278137 -0.000000 0.000000 -0.000001 
0.000006 104.270477 1.554256 0.000010 0.000003 -0.000113 -0.000005 10.181587 0.131522 0.000001 -0.000003 0.000084 -0.000000 9.893967 -1.470711 0.000001 0.000000 -0.000000 -0.000000 9.220802 -1.370642 0.000000 -0.000000 -0.000000 0.000001 16.740433 -2.049030 0.000000 -0.000000 -0.000000 0.000000 9.617859 1.685014 0.000000 0.000000 0.000000 0.000002 22.037384 7.501101 0.000000 -0.000000 0.000000 -4.569968 11.014880 -2.160881 0.000008 0.000001 -0.000038 -10.592817 -0.524828 -2.231775 45.286268 62.489319 -28.403958 -27.841511 0.000004 0.000562 70.035913 103.453986 -83.214483 -28.328835 0.000006 0.000031 -0.000324 -0.000044 0.000006 -2.464906 -1.573977 2.682310 25.838925 -202.717938 158.237356 -3.215305 -1.872718 1.924706 201.349578 29.516488 348.337599 -2.654980 -1.527873 1.513027 252.137417 114.827952 -265.108356 -2.018823 -1.151982 1.108056 -0.000002 0.000001 0.000004 -9.108435 -0.517652 2.260032 244.427827 147.501487 -200.847587 -3.700124 0.000204 0.001404 53.248862 30.421844 -15.507605 -2.850145 0.000077 -0.000384 16.196513 38.180850 -5.638192 -2.772193 -0.000002 -0.000003 0.000000 0.000002 -0.000001 -9.532591 0.000204 0.000124 65.992045 17.764338 -11.685585 -3.700070 0.000334 0.003956 92.938732 9.818959 -10.236279 -2.949902 0.000105 -0.001445 21.914505 158.368878 -90.762791 -2.946640 0.000000 -0.000155 0.000003 0.000004 -0.000000 -9.103672 -0.042780 -1.864977 72.396856 12.885711 -9.417062 -3.379173 0.000413 -0.000746 117.913845 -12.215935 20.144625 -2.889633 -0.000154 0.000871 577.330154 -14.571715 -41.312881 -2.638802 -0.000002 0.000942 -0.000004 0.000000 -0.000000 -8.076713 -0.486366 -3.806098 76.632031 9.164701 -7.137826 -3.599903 0.000356 -0.003477 -67.042043 -167.346847 -160.654710 -2.099598 -0.000168 -0.005277 191.828335 -23.364889 -127.926766 -2.115769 -0.000026 -0.003676 -0.000003 0.000000 -0.000006 4.570446 11.014691 -2.160851 -0.000018 0.000010 -0.000021 10.592480 -0.524561 -2.232359 42.694922 -59.922718 25.393503 27.841745 -0.000055 -0.000124 249.313215 -78.792960 260.176276 28.328833 -0.000028 0.000019 0.000020 -0.000090 -0.000000 2.466217 -1.576086 2.681859 14.245416 154.260533 -93.524257 3.217829 -1.871972 1.916522 204.131637 24.967365 77.772810 2.655977 -1.528458 1.514681 237.508026 -50.283781 -9.413860 2.020899 -1.154082 1.115143 -0.000001 0.000001 0.000002 9.109398 -0.517931 2.259782 439.282906 -36.865806 390.860908 3.700063 0.000076 -0.000412 67.433891 -33.456715 22.697096 2.850065 0.000058 0.000295 62.160677 -42.551474 26.417222 2.774886 -0.000047 -0.000033 0.000000 0.000000 0.000000 9.533462 0.000193 -0.000091 256.592640 -162.082984 194.184354 3.700055 0.000172 -0.000399 86.396046 -11.276896 10.590531 2.950058 0.000219 -0.000196 -72.537879 -167.459614 197.037079 2.952873 -0.000011 0.000068 -0.000001 -0.000002 0.000003 9.104576 -0.042858 -1.865226 81.406177 -14.167027 12.204686 3.149962 0.000283 -0.000153 97.730916 8.591479 -9.829439 2.949685 0.000341 -0.000118 135.987004 31.776116 -70.310766 2.644319 0.000036 0.000050 -0.000001 -0.000001 0.000003 8.077824 -0.486677 -3.806425 85.391107 -10.044117 9.775731 3.599883 0.000343 0.014543 107.845511 12.848958 -17.142322 2.099693 0.000271 0.007587 142.651356 34.071610 -84.459831 2.125503 0.000001 0.007509 -0.000002 -0.000003 0.000000 -8.207786 -6.751667 -1.599560 -0.077001 -0.000003 0.000080 -0.000002 -44.370110 0.345938 0.153719 -0.000000 -0.000000 0.000000 -44.423679 -3.043532 -0.076700 0.000000 -0.000002 -0.000006 -8.728667 10.710559 -0.000009 -0.000000 -0.000000 -0.000001 -0.000679 9.278123 0.000000 -0.000000 -0.000000 8.207792 -6.751710 -1.599556 -0.074518 -0.000003 0.000081 -0.000002 -44.370014 0.346960 0.148822 0.000002 0.000000 -0.000001 -44.423664 -3.044403 -0.074314 0.000000 -0.000002 -0.000004 -8.728671 10.710558 0.000007 -0.000000 -0.000000 0.000000 -0.000680 9.278137 -0.000000 0.000000 -0.000001 
0.000006 104.270477 1.554256 0.000010 0.000003 -0.000113 -0.000005 10.181587 0.131522 0.000001 -0.000003 0.000084 -0.000000 9.893967 -1.470711 0.000001 0.000000 -0.000000 -0.000000 9.220802 -1.370642 0.000000 -0.000000 -0.000000 0.000001 16.740433 -2.049030 0.000000 -0.000000 -0.000000 0.000000 9.617859 1.685014 0.000000 0.000000 0.000000 0.000002 22.037384 7.501101 0.000000 -0.000000 0.000000 -4.569968 11.014880 -2.160881 0.000008 0.000001 -0.000038 -10.592822 -0.524825 -2.231785 46.830967 60.775672 -28.498210 -27.841516 -0.000002 0.000558 69.956724 103.332545 -83.006913 -28.328831 0.000007 0.000029 -0.000321 -0.000046 0.000008 -2.464873 -1.574030 2.682332 25.375097 -192.064551 143.936920 -3.215247 -1.872831 1.924736 204.529195 18.242209 331.159591 -2.654970 -1.527884 1.513018 251.582450 118.248907 -257.668258 -2.018831 -1.152003 1.108064 -0.000001 -0.000001 0.000004 -9.108429 -0.517632 2.260018 246.813120 152.960215 -198.057823 -3.700100 0.000236 0.001362 55.866238 22.833319 -12.207736 -2.850170 0.000095 -0.000393 17.433470 35.930265 -5.691699 -2.772166 -0.000017 -0.000016 -0.000002 -0.000002 0.000001 -9.532576 0.000244 0.000126 70.002179 14.102585 -10.000358 -3.700052 0.000335 0.003929 87.191968 5.299905 -4.964047 -2.949942 0.000090 -0.001450 34.448325 159.418992 -119.293816 -2.946625 0.000014 -0.000150 0.000000 0.000003 -0.000000 -9.103675 -0.042761 -1.864972 75.739114 10.597313 -8.217356 -3.379184 0.000404 -0.000791 109.964516 -12.104815 17.194057 -2.889657 -0.000154 0.000848 586.334584 -12.926238 -29.539305 -2.638822 -0.000014 0.000937 -0.000001 -0.000001 0.000002 -8.076708 -0.486353 -3.806081 80.088319 7.987264 -6.600913 -3.599905 0.000351 -0.003459 -66.352405 -168.558755 -162.218004 -2.099618 -0.000206 -0.005278 192.212342 -21.276924 -121.925898 -2.115775 -0.000011 -0.003682 -0.000003 -0.000004 -0.000006 4.570446 11.014691 -2.160851 -0.000018 0.000010 -0.000021 10.592477 -0.524557 -2.232359 43.463468 -58.780410 25.306781 27.841740 -0.000053 -0.000122 247.524252 -78.812610 258.266665 28.328825 -0.000030 0.000025 0.000019 -0.000091 -0.000000 2.466245 -1.576055 2.681849 20.421769 163.674419 -108.632608 3.217839 -1.871961 1.916532 203.993763 19.540034 73.002660 2.655970 -1.528470 1.514699 240.359056 -49.938761 -7.978515 2.020887 -1.154085 1.115159 0.000004 0.000007 0.000004 9.109398 -0.517896 2.259769 438.575900 -29.246877 384.088311 3.700064 0.000089 -0.000427 72.937500 -29.456509 22.005263 2.850061 0.000073 0.000334 73.826005 -49.796812 38.441852 2.774902 -0.000032 -0.000040 -0.000000 0.000003 0.000000 9.533462 0.000183 -0.000099 258.868869 -162.086126 194.764005 3.700045 0.000174 -0.000379 84.366503 -10.614572 9.621588 2.950042 0.000199 -0.000205 -82.438607 -170.253407 191.121015 2.952868 -0.000043 0.000047 0.000006 0.000000 -0.000001 9.104586 -0.042844 -1.865216 83.144514 -16.155173 14.351211 3.149969 0.000274 -0.000150 94.055489 5.478201 -5.878197 2.949801 0.000329 -0.000171 116.439754 27.130556 -42.556341 2.644321 0.000048 0.000065 -0.000000 0.000003 0.000002 8.077842 -0.486693 -3.806428 86.513621 -12.802413 12.583785 3.599903 0.000314 0.014551 105.720277 9.913451 -12.614988 2.099764 0.000335 0.007552 128.953439 28.299087 -55.474223 2.125510 -0.000019 0.007509 0.000000 0.000004 -0.000003 -8.207786 -6.751667 -1.599560 -0.077001 -0.000003 0.000080 -0.000002 -44.370110 0.345938 0.153719 -0.000000 -0.000000 0.000000 -44.423679 -3.043532 -0.076700 0.000000 -0.000002 -0.000006 -8.728667 10.710559 -0.000009 -0.000000 -0.000000 -0.000001 -0.000679 9.278123 0.000000 -0.000000 -0.000000 8.207792 -6.751710 -1.599556 -0.074518 -0.000003 0.000081 -0.000002 -44.370014 0.346960 0.148822 0.000002 0.000000 -0.000001 -44.423664 -3.044403 -0.074314 0.000000 -0.000002 -0.000004 -8.728671 10.710558 0.000007 -0.000000 -0.000000 0.000000 -0.000680 9.278137 -0.000000 0.000000 -0.000001 
